<?xml version="1.0" standalone="no"?>
<!DOCTYPE svg PUBLIC "-//W3C//DTD SVG 20010904//EN"
 "http://www.w3.org/TR/2001/REC-SVG-20010904/DTD/svg10.dtd">
<svg version="1.0" xmlns="http://www.w3.org/2000/svg"
 width="500.000000pt" height="500.000000pt" viewBox="0 0 500.000000 500.000000"
 preserveAspectRatio="xMidYMid meet">

<g transform="translate(0.000000,500.000000) scale(0.100000,-0.100000)"
fill="#000000" stroke="none">
<path d="M3190 3257 c-3 -2 -48 -7 -100 -11 -52 -3 -113 -10 -135 -15 -22 -5
-62 -14 -90 -20 -27 -6 -66 -15 -85 -20 -19 -6 -51 -14 -70 -19 -38 -10 -64
-19 -95 -32 -11 -5 -33 -11 -48 -15 -15 -3 -25 -10 -22 -15 3 -5 0 -7 -7 -5
-8 3 -44 -6 -80 -19 -72 -27 -288 -117 -418 -173 -45 -20 -245 -97 -350 -135
-30 -11 -64 -24 -75 -28 -47 -19 -229 -71 -340 -99 -281 -68 -476 -85 -683
-57 -50 6 -92 11 -92 9 0 -4 111 -86 156 -114 129 -83 302 -141 535 -178 84
-14 312 -14 398 -1 36 6 98 15 136 21 170 26 461 114 632 190 24 10 47 19 53
19 6 0 18 4 28 10 9 5 87 37 172 71 85 33 169 66 185 73 107 45 363 126 480
152 107 25 141 28 315 28 203 1 294 -11 434 -55 115 -37 297 -121 368 -171 14
-10 31 -18 37 -18 6 0 11 -4 11 -10 0 -5 5 -10 12 -10 6 0 27 -12 46 -26 l34
-27 -18 29 c-55 89 -286 330 -305 319 -5 -4 -8 -2 -7 3 4 13 -60 64 -72 57 -6
-4 -9 -2 -8 3 6 22 -203 147 -312 187 -25 9 -54 21 -65 26 -28 12 -126 38
-210 55 -71 14 -336 31 -345 21z"/>
</g>
</svg>
